<svg width="48" height="48" viewBox="0 0 48 48" fill="none" xmlns="http://www.w3.org/2000/svg">
<path fill-rule="evenodd" clip-rule="evenodd" d="M23.757 48C35.8477 48 45.8503 39.0593 47.5139 27.4286H33.4574C32.0454 31.4235 28.2354 34.2857 23.757 34.2857C19.2785 34.2857 15.4685 31.4235 14.0565 27.4286H0C1.66364 39.0593 11.6662 48 23.757 48Z" fill="#EFEFEF"/>
<path d="M23.757 0C11.6662 0 1.66364 8.94071 0 20.5714H14.0565C15.4685 16.5765 19.2785 13.7143 23.757 13.7143C28.2354 13.7143 32.0454 16.5765 33.4574 20.5714H47.5139C45.8503 8.94071 35.8477 0 23.757 0Z" fill="#DC0A2D"/>
<path d="M29.4712 24C29.4712 27.1559 26.9129 29.7143 23.757 29.7143C20.601 29.7143 18.0427 27.1559 18.0427 24C18.0427 21.5 19.5 18.2857 23.757 18.2857C26.9129 18.2857 29.4712 20.8441 29.4712 24Z" fill="#EFEFEF"/>
<path d="M28.9712 24C28.9712 26.8798 26.6367 29.2143 23.757 29.2143C20.8772 29.2143 18.5427 26.8798 18.5427 24C18.5427 22.8366 18.8835 21.5266 19.6933 20.5185C20.4887 19.5282 21.7699 18.7857 23.757 18.7857C26.6367 18.7857 28.9712 21.1202 28.9712 24ZM23.757 0.5C35.3968 0.5 45.0609 8.96306 46.9301 20.0714H33.8047C32.2343 16.058 28.3283 13.2143 23.757 13.2143C19.1856 13.2143 15.2796 16.058 13.7092 20.0714H0.583794C2.45304 8.96306 12.1171 0.5 23.757 0.5ZM23.757 47.5C12.1171 47.5 2.45304 39.0369 0.583794 27.9286H13.7092C15.2796 31.942 19.1856 34.7857 23.757 34.7857C28.3283 34.7857 32.2343 31.942 33.8047 27.9286H46.9301C45.0609 39.0369 35.3968 47.5 23.757 47.5Z" stroke="black"/>
</svg>
