<svg width="660" height="115" viewBox="0 0 660 115" fill="none" xmlns="http://www.w3.org/2000/svg">
<rect width="660" height="115" fill="none"/>
<path d="M28.7727 32.2455C28.7727 34.8815 26.6359 37.0183 24 37.0183C21.3641 37.0183 19.2273 34.8815 19.2273 32.2455C19.2273 31.1559 19.5484 29.9499 20.2806 29.0383C20.9841 28.1624 22.1327 27.4728 24 27.4728C26.6359 27.4728 28.7727 29.6096 28.7727 32.2455ZM24 9C35.311 9 44.7365 17.0795 46.8176 27.7819H34.4828C32.747 23.7105 28.7082 20.8546 24 20.8546C19.2918 20.8546 15.253 23.7105 13.5172 27.7819H1.18242C3.26346 17.0795 12.689 9 24 9ZM24 55.4911C12.689 55.4911 3.26346 47.4115 1.18242 36.7092H13.5172C15.253 40.7805 19.2918 43.6365 24 43.6365C28.7082 43.6365 32.747 40.7805 34.4828 36.7092H46.8176C44.7365 47.4115 35.311 55.4911 24 55.4911Z" stroke="#381616" stroke-width="2"/>
<path d="M151 8.8733C152.201 5.59738 146.095 15.8993 146.414 22.2878M146.414 22.2878C147.947 20.5988 150.414 19.9994 150.414 19.9994C150.414 19.9994 154.995 19.1772 158.414 20.5826C163.791 15.8683 174.914 13.5838 173.914 15.3335C172.914 17.0832 166.433 23.0637 160.914 23.4988C162.814 28.5374 164.384 32.5349 165.654 35.7468C167.66 38.0169 168.801 40.3826 169.414 42.5759M146.414 22.2878C141.865 28.3846 143.142 31.5631 147.914 34.5804L142.414 36.9133C140.325 38.938 140.744 39.3987 142.414 39.8295L149.414 40.996C149.414 40.996 150.414 51.4942 153.914 52.6607C154.126 52.7313 154.325 52.7834 154.514 52.8196M169.414 51.4942C169.471 51.2933 169.527 51.1813 169.571 51.1371M169.414 51.4942C169.414 51.4942 169.423 51.5197 169.439 51.5668M169.414 51.4942C169.336 51.7671 169.363 51.7763 169.439 51.5668M169.571 51.1371C169.687 51.0218 169.725 51.3676 169.517 51.7995M169.571 51.1371C169.784 50.3471 170.083 48.7979 170.04 46.8283M169.571 51.1371C169.52 51.3246 169.475 51.4693 169.439 51.5668M169.517 51.7995C169.098 52.6643 167.687 53.874 163.914 52.4162C159.988 50.8996 158.432 51.7834 157.001 52.4162M169.517 51.7995C169.819 52.7412 170.61 55.5728 169.414 56.1601C167.997 56.8556 166.5 53.0747 166.5 53.0747M169.517 51.7995C169.484 51.6985 169.457 51.6192 169.439 51.5668M154.514 52.8196C154.514 52.8196 155.119 56.5722 156.414 56.1601C157.643 55.7689 157.001 52.4162 157.001 52.4162M154.514 52.8196C155.528 53.0134 156.247 52.7497 157.001 52.4162M170.04 46.8283L171.914 46.2451L170.914 43.9122L173.914 42.1624L171.914 38.663L174.914 35.7468L173.914 32.8306L184.914 24.6653L182.414 13.5838L169.414 27.5815L171.914 33.4139L168.914 37.4965L170.914 40.996L169.414 42.5759M170.04 46.8283C170.012 45.5559 169.842 44.1079 169.414 42.5759M151.702 20.2455C152.42 15.304 151.702 7.65244 151 8.28208" stroke="#381616" stroke-width="2"/>
<path d="M287.914 26.1401C284.884 27.2844 283.165 27.7976 280.414 30.6002H278.414L278.914 32.8302L277.914 34.5027C281.04 35.5771 282.687 35.6761 285.414 35.0603C285.217 38.2892 285.465 39.141 285.914 40.6353C283.738 43.4168 283.085 45.512 283.414 50.113L281.914 51.228L282.914 51.7855L282.414 52.9005L284.414 52.343C284.609 52.7784 284.914 53.458 284.914 53.458C286.678 52.6505 287.793 52.2498 290.414 51.7855C290.114 50.0673 290.358 49.4469 290.914 48.4404C293.231 49.7611 294.624 50.0278 297.414 48.9979C298.51 51.1968 298.919 52.7041 299.414 55.688C301.876 54.7225 302.427 55.273 303.414 56.2455C304.471 55.1111 305.135 54.974 306.414 55.688C305.702 53.574 305.882 50.8534 305.914 46.7679C307.746 43.8459 308.807 41.9832 310.414 40.6353C312.539 39.1679 313.84 38.7898 316.414 38.9628C320.735 40.4673 321.313 44.5653 319.414 48.4404C318.43 50.4478 315.101 51.7855 315.101 51.7855C313.15 52.2079 312.035 52.3167 309.914 51.7855C309.914 51.7855 308.102 51.3743 306.414 50.6705M286.914 13.3175C286.914 13.3175 286.414 12.76 286.914 12.2024C287.414 11.6449 291.414 7.74238 295.914 8.29989C300.415 8.85741 303.547 12.818 303.914 18.8925C302.51 25.9176 300.655 27.7959 293.914 27.8127C290.189 26.7043 287.947 27.3303 284.914 20.5651C284.902 19.2976 285.052 18.6554 285.914 17.7775C285.612 15.8424 285.996 14.9125 286.914 13.3175ZM303.414 23.9101C303.414 23.3526 307.454 30.1982 307.914 34.5027C308.473 39.3894 306.414 45.6529 305.914 46.2104C305.414 46.7679 304.913 42.3079 303.914 40.6353C302.914 38.9628 304.426 35.4648 304.548 35.0603C304.671 34.6557 303.549 33.3334 302.048 30.5458C300.548 27.7583 303.414 24.4676 303.414 23.9101Z" stroke="#381616" stroke-width="2"/>
<path d="M438.731 44.6599C437.593 40.8573 435.533 37.2684 431.943 35.2812C435.417 36.5808 438.925 36.0604 440.943 34.1778C442.962 32.2952 439.943 32.5227 439.943 32.5227H440.943L439.943 31.4193V30.3159C439.559 30.5285 439.021 30.8242 437.943 31.4193C435.21 29.9112 434.943 28.6609 430.943 27.5575C426.943 26.4541 433.943 21.4888 431.943 17.0753C429.721 9.09457 427.734 8.34721 423.943 8.24819C420.153 8.14917 418.843 10.8406 416.943 14.3168C416.911 18.7202 416.717 20.8188 415.943 23.6956C415.169 26.5724 422.443 28.6609 422.443 28.6609L415.943 31.4193L413.443 33.6235L415.443 34.7268L414.943 36.3846C415.843 35.8362 417.851 35.6362 421.443 35.2812L420.943 41.3498C420.943 41.3498 421.943 40.7982 418.943 43.5566C415.943 46.315 417.943 50.7286 417.943 50.7286L413.943 52.3837L417.943 51.832L414.943 53.608L417.943 52.3837L415.943 54.0388C418.861 52.9609 421.271 52.6197 423.443 52.3837C423.443 52.3837 425.443 51.2803 423.943 50.1769C422.443 49.0735 428.443 49.0735 428.443 49.0735C428.443 49.0735 431.112 50.1946 432.943 50.1769C434.027 51.2822 435.986 52.1185 436.443 54.0388L438.943 56.2455L438.731 54.0388L440.943 55.1422L439.443 53.4871L441.943 54.0388L439.943 51.832C439.911 51.2944 439.866 50.741 439.806 50.1769M438.731 44.6599C444.969 44.459 446.244 42.3087 447.443 37.4879L445.443 35.2812L443.943 33.0744L445.443 30.3159V27.5575M438.731 44.6599C439.282 46.5014 439.618 48.3929 439.806 50.1769M445.443 26.454V27.5575M445.443 27.5575L446.443 25.3506L447.443 26.454L448.443 22.0405L449.443 23.6956L449.943 27.5574L451.443 29.7642L449.943 33.0744H451.443L449.943 36.3846L448.443 38.0396C447.687 44.8524 446.288 47.9006 439.806 50.1769" stroke="#381616" stroke-width="2"/>
<path fill-rule="evenodd" clip-rule="evenodd" d="M578.297 7.13232L580.108 9.54565L582.508 7.74556V10.4365L585.433 8.97427L584.427 10.5184C583.83 11.4346 583.497 12.128 583.407 12.9134C583.318 13.6971 583.466 14.6337 583.965 16.0375C586.965 21.3652 588.373 25.0179 588.286 27.8372C588.201 30.6012 586.691 32.4687 584.195 34.245C585.566 36.375 586.171 38.2547 585.979 40.2414C585.777 42.3295 584.7 44.4517 582.919 47.0298L582.834 47.1519L582.697 47.2082C581.676 47.6269 580.813 47.8655 579.886 47.8713C578.962 47.877 578.018 47.6515 576.834 47.2147L576.627 47.1384L576.544 46.9343C575.874 45.2903 575.319 43.8657 575.236 42.3763C575.18 42.5031 575.122 42.6291 575.061 42.7545C574.084 44.7727 572.471 46.5706 569.814 48.64L569.638 48.7775L563.441 47.6506L563.514 47.1706C563.687 46.0297 563.869 45.1322 564.364 43.2307C564.064 43.2035 563.742 43.1533 563.423 43.0927C562.83 42.9804 562.2 42.8233 561.64 42.6732C561.277 42.576 560.933 42.4785 560.65 42.3985C560.571 42.3759 560.496 42.3548 560.427 42.3353C560.348 42.5329 560.232 42.7619 560.089 43.0048C559.75 43.5819 559.225 44.3044 558.576 44.9903C557.929 45.6748 557.14 46.3421 556.268 46.7867C555.395 47.2321 554.407 47.4686 553.395 47.2325L553.255 47.2001L553.154 47.0989C552.623 46.5675 552.143 46.0639 551.713 45.5762C550.509 44.2096 549.701 42.9022 549.264 41.4614C548.829 40.0284 548.772 38.5015 549.009 36.7088L549.015 36.2509L548.943 34.2637L549.943 34.2275L550.016 36.2402L550.008 36.7825L550.004 36.8118C549.775 38.5225 549.837 39.9061 550.221 41.1709C550.605 42.4357 551.322 43.6202 552.464 44.915C552.848 45.3506 553.277 45.804 553.756 46.2862C554.429 46.405 555.124 46.2475 555.814 45.8958C556.551 45.5197 557.251 44.9362 557.85 44.3031C558.447 43.6715 558.927 43.0095 559.227 42.4984C559.374 42.2474 559.469 42.0482 559.516 41.9163C559.51 41.9011 559.504 41.8848 559.498 41.8676C559.477 41.7986 559.462 41.6984 559.493 41.585C559.525 41.4685 559.593 41.383 559.66 41.3275C559.773 41.2351 559.892 41.2199 559.92 41.2163C559.964 41.2106 560.002 41.2116 560.022 41.2126C560.063 41.2147 560.101 41.2208 560.125 41.2252C560.221 41.2423 560.367 41.281 560.525 41.3247C560.647 41.3581 560.785 41.3973 560.938 41.4406C561.215 41.5191 561.541 41.6112 561.899 41.7073C562.449 41.8548 563.052 42.0046 563.609 42.1102C564.176 42.2178 564.654 42.2709 564.97 42.247L565.671 42.1939L565.491 42.8735C564.961 44.8762 564.745 45.8374 564.578 46.8411L569.376 47.7134C571.861 45.7536 573.297 44.1033 574.161 42.3188C575.047 40.4888 575.356 38.468 575.509 35.7178L576.507 35.7733C576.461 36.6132 576.399 37.3987 576.309 38.1413C576.754 37.3146 577.347 36.425 578.112 35.4391L578.902 36.052C577.025 38.4725 576.323 40.155 576.235 41.6599C576.149 43.1269 576.636 44.5001 577.387 46.3512C578.414 46.7164 579.175 46.8757 579.879 46.8713C580.591 46.8669 581.285 46.6954 582.18 46.3384C583.887 43.8497 584.81 41.9376 584.983 40.145C585.157 38.3488 584.585 36.5889 583.094 34.3944C582.809 33.9737 582.49 33.5379 582.137 33.0836C577.778 29.0001 575.381 26.9468 571.197 23.6377L571.031 23.5067L571.01 23.2965C570.736 20.6225 570.516 19.1056 569.192 16.252C568.311 16.2727 567.625 16.3195 566.931 16.4866C566.161 16.6721 565.355 17.0129 564.266 17.6731L564.108 17.769L563.926 17.7389C562.408 17.4888 561.18 17.3089 559.966 17.2075C559.617 17.1783 559.243 17.2156 558.823 17.2853C558.626 17.3178 558.427 17.3561 558.217 17.3964L558.175 17.4046C557.952 17.4474 557.719 17.4918 557.481 17.5298C556.525 17.6823 555.44 17.7412 554.293 17.1974C553.187 16.673 551.957 16.3076 550.994 16.0727C550.515 15.9558 550.107 15.8723 549.819 15.8181C549.799 15.8144 549.779 15.8108 549.76 15.8073C549.717 15.9211 549.665 16.057 549.608 16.2101C549.43 16.6829 549.201 17.3164 548.989 17.9635C548.776 18.6143 548.586 19.2639 548.484 19.7736C548.432 20.031 548.408 20.2306 548.407 20.3676C548.407 20.4021 548.408 20.4277 548.41 20.4457C548.552 20.6203 548.558 20.8263 548.547 20.9426C548.535 21.084 548.488 21.2252 548.441 21.3463C548.343 21.594 548.177 21.9021 547.988 22.2377C547.888 22.4151 547.778 22.6049 547.662 22.8064C547.324 23.3906 546.93 24.0729 546.545 24.8359C545.502 26.903 544.625 29.3797 545.22 31.6171L544.253 31.874C543.556 29.2518 544.596 26.4784 545.653 24.3854C546.052 23.5946 546.467 22.8751 546.807 22.287C546.92 22.0914 547.024 21.9104 547.117 21.746C547.309 21.4066 547.441 21.154 547.511 20.9786C547.517 20.9618 547.523 20.947 547.527 20.9339C547.486 20.8601 547.462 20.7867 547.446 20.7249C547.415 20.605 547.407 20.4797 547.407 20.3637C547.408 20.1316 547.447 19.8586 547.503 19.5769C547.617 19.0084 547.822 18.3143 548.038 17.6526C548.256 16.9873 548.491 16.3395 548.671 15.8591C548.761 15.6186 548.838 15.4194 548.892 15.2801C548.919 15.2104 548.941 15.1557 548.956 15.1182L548.973 15.0752L548.979 15.06C548.979 15.06 548.979 15.0599 549.443 15.2456C549.516 14.751 549.517 14.751 549.517 14.751L549.519 14.7514L549.526 14.7525L549.552 14.7565C549.575 14.76 549.607 14.7652 549.649 14.7721C549.732 14.786 549.852 14.8069 550.003 14.8353C550.306 14.8922 550.732 14.9794 551.232 15.1013C552.226 15.344 553.529 15.7286 554.721 16.2937C555.6 16.7103 556.445 16.6824 557.323 16.5423C557.544 16.5071 557.763 16.4655 557.986 16.4226L558.032 16.4138C558.238 16.3741 558.45 16.3335 558.659 16.2988C558.984 16.2449 559.321 16.2022 559.661 16.1979C560.044 15.1836 560.523 14.3187 561.162 13.5978C561.876 12.7923 562.771 12.1885 563.905 11.749C566.144 10.8807 569.347 10.6453 574.019 10.7457L574.027 10.7459C575.458 10.8011 576.276 10.6435 576.814 10.2759C577.341 9.91594 577.7 9.2853 578.025 8.11202L578.297 7.13232ZM560.706 16.2728C561.7 16.3769 562.725 16.5291 563.907 16.7225C564.98 16.0862 565.839 15.7209 566.697 15.5144C567.59 15.2992 568.455 15.2635 569.499 15.2456L569.821 15.2401L569.959 15.5311C571.432 18.6346 571.701 20.2803 571.983 22.9844C576.097 26.2425 578.51 28.3151 582.849 32.3807L582.878 32.4074L582.902 32.4382C583.162 32.772 583.405 33.0981 583.633 33.4175C586.003 31.728 587.215 30.1117 587.286 27.8065C587.364 25.2886 586.091 21.8464 583.072 16.4911L583.052 16.454L583.037 16.4138C582.507 14.9298 582.299 13.8135 582.414 12.8005C582.469 12.3098 582.6 11.8578 582.789 11.414L581.508 12.0546V9.74556L579.908 10.9455L578.683 9.31331C578.38 10.0856 577.983 10.6886 577.378 11.1017C576.559 11.6608 575.461 11.8017 573.993 11.7454C569.321 11.6451 566.301 11.8924 564.266 12.6813C563.262 13.0706 562.506 13.5892 561.91 14.2612C561.426 14.8068 561.035 15.4679 560.706 16.2728ZM549.443 15.2456L549.517 14.751L549.125 14.693L548.979 15.06L549.443 15.2456ZM544.47 32.1853C544.332 32.0045 544.178 31.7324 544.229 31.4168L545.216 31.5743C545.223 31.5328 545.217 31.5069 545.215 31.4997C545.217 31.5067 545.229 31.5317 545.264 31.5774C545.338 31.6736 545.473 31.8049 545.684 31.9653C546.104 32.2835 546.749 32.6595 547.586 33.053C549.254 33.8377 551.613 34.6607 554.27 35.2202C559.614 36.3454 566 36.373 570.425 33.0939L571.02 33.8973C566.242 37.4385 559.489 37.3411 554.064 36.1988C551.336 35.6245 548.903 34.778 547.16 33.9579C546.291 33.5491 545.577 33.1389 545.08 32.7621C544.833 32.575 544.621 32.3816 544.47 32.1853ZM545.214 31.4976L545.215 31.4997Z" fill="#381616"/>
<path d="M548.979 15.06C548.979 15.06 548.979 15.0599 549.443 15.2456M548.979 15.06L549.125 14.693L549.517 14.751M548.979 15.06L549.443 15.2456M548.979 15.06L548.973 15.0752L548.956 15.1182C548.941 15.1557 548.919 15.2104 548.892 15.2801C548.838 15.4194 548.761 15.6186 548.671 15.8591C548.491 16.3395 548.256 16.9873 548.038 17.6526C547.822 18.3143 547.617 19.0084 547.503 19.5769C547.447 19.8586 547.408 20.1316 547.407 20.3637C547.407 20.4797 547.415 20.605 547.446 20.7249C547.462 20.7867 547.486 20.8601 547.527 20.9339C547.523 20.947 547.517 20.9618 547.511 20.9786C547.441 21.154 547.309 21.4066 547.117 21.746C547.024 21.9104 546.92 22.0914 546.807 22.287C546.467 22.8751 546.052 23.5946 545.653 24.3854C544.596 26.4784 543.556 29.2518 544.253 31.874L545.22 31.6171C544.625 29.3797 545.502 26.903 546.545 24.8359C546.93 24.0729 547.324 23.3906 547.662 22.8064C547.778 22.6049 547.888 22.4151 547.988 22.2377C548.177 21.9021 548.343 21.594 548.441 21.3463C548.488 21.2252 548.535 21.084 548.547 20.9426C548.558 20.8263 548.552 20.6203 548.41 20.4457C548.408 20.4277 548.407 20.4021 548.407 20.3676C548.408 20.2306 548.432 20.031 548.484 19.7736C548.586 19.2639 548.776 18.6143 548.989 17.9635C549.201 17.3164 549.43 16.6829 549.608 16.2101C549.665 16.057 549.717 15.9211 549.76 15.8073C549.779 15.8108 549.799 15.8144 549.819 15.8181C550.107 15.8723 550.515 15.9558 550.994 16.0727C551.957 16.3076 553.187 16.673 554.293 17.1974C555.44 17.7412 556.525 17.6823 557.481 17.5298C557.719 17.4918 557.952 17.4474 558.175 17.4046L558.217 17.3964C558.427 17.3561 558.626 17.3178 558.823 17.2853C559.243 17.2156 559.617 17.1783 559.966 17.2075C561.18 17.3089 562.408 17.4888 563.926 17.7389L564.108 17.769L564.266 17.6731C565.355 17.0129 566.161 16.6721 566.931 16.4866C567.625 16.3195 568.311 16.2727 569.192 16.252C570.516 19.1056 570.736 20.6225 571.01 23.2965L571.031 23.5067L571.197 23.6377C575.381 26.9468 577.778 29.0001 582.137 33.0836C582.49 33.5379 582.809 33.9737 583.094 34.3944C584.585 36.5889 585.157 38.3488 584.983 40.145C584.81 41.9376 583.887 43.8497 582.18 46.3384C581.285 46.6954 580.591 46.8669 579.879 46.8713C579.175 46.8757 578.414 46.7164 577.387 46.3512C576.636 44.5001 576.149 43.1269 576.235 41.6599C576.323 40.155 577.025 38.4725 578.902 36.052L578.112 35.4391C577.347 36.425 576.754 37.3146 576.309 38.1413C576.399 37.3987 576.461 36.6132 576.507 35.7733L575.509 35.7178C575.356 38.468 575.047 40.4888 574.161 42.3188C573.297 44.1033 571.861 45.7536 569.376 47.7134L564.578 46.8411C564.745 45.8374 564.961 44.8762 565.491 42.8735L565.671 42.1939L564.97 42.247C564.654 42.2709 564.176 42.2178 563.609 42.1102C563.052 42.0046 562.449 41.8548 561.899 41.7073C561.541 41.6112 561.215 41.5191 560.938 41.4406C560.785 41.3973 560.647 41.3581 560.525 41.3247C560.367 41.281 560.221 41.2423 560.125 41.2252C560.101 41.2208 560.063 41.2147 560.022 41.2126C560.002 41.2116 559.964 41.2106 559.92 41.2163C559.892 41.2199 559.773 41.2351 559.66 41.3275C559.593 41.383 559.525 41.4685 559.493 41.585C559.462 41.6984 559.477 41.7986 559.498 41.8676C559.504 41.8848 559.51 41.9011 559.516 41.9163C559.469 42.0482 559.374 42.2474 559.227 42.4984C558.927 43.0095 558.447 43.6715 557.85 44.3031C557.251 44.9362 556.551 45.5197 555.814 45.8958C555.124 46.2475 554.429 46.405 553.756 46.2862C553.277 45.804 552.848 45.3506 552.464 44.915C551.322 43.6202 550.605 42.4357 550.221 41.1709C549.837 39.9061 549.775 38.5225 550.004 36.8118L550.008 36.7825L550.016 36.2402L549.943 34.2275L548.943 34.2637L549.015 36.2509L549.009 36.7088C548.772 38.5015 548.829 40.0284 549.264 41.4614C549.701 42.9022 550.509 44.2096 551.713 45.5762C552.143 46.0639 552.623 46.5675 553.154 47.0989L553.255 47.2001L553.395 47.2325C554.407 47.4686 555.395 47.2321 556.268 46.7867C557.14 46.3421 557.929 45.6748 558.576 44.9903C559.225 44.3044 559.75 43.5819 560.089 43.0048C560.232 42.7619 560.348 42.5329 560.427 42.3353C560.496 42.3548 560.571 42.3759 560.65 42.3985C560.933 42.4785 561.277 42.576 561.64 42.6732C562.2 42.8233 562.83 42.9804 563.423 43.0927C563.742 43.1533 564.064 43.2035 564.364 43.2307C563.869 45.1322 563.687 46.0297 563.514 47.1706L563.441 47.6506L569.638 48.7775L569.814 48.64C572.471 46.5706 574.084 44.7727 575.061 42.7545C575.122 42.6291 575.18 42.5031 575.236 42.3763C575.319 43.8657 575.874 45.2903 576.544 46.9343L576.627 47.1384L576.834 47.2147C578.018 47.6515 578.962 47.877 579.886 47.8713C580.813 47.8655 581.676 47.6269 582.697 47.2082L582.834 47.1519L582.919 47.0298C584.7 44.4517 585.777 42.3295 585.979 40.2414C586.171 38.2547 585.566 36.375 584.195 34.245C586.691 32.4687 588.201 30.6012 588.286 27.8372C588.373 25.0179 586.965 21.3652 583.965 16.0375C583.466 14.6337 583.318 13.6971 583.407 12.9134C583.497 12.128 583.83 11.4346 584.427 10.5184L585.433 8.97427L582.508 10.4365V7.74556L580.108 9.54565L578.297 7.13232L578.025 8.11202C577.7 9.2853 577.341 9.91594 576.814 10.2759C576.276 10.6435 575.458 10.8011 574.027 10.7459L574.019 10.7457C569.347 10.6453 566.144 10.8807 563.905 11.749C562.771 12.1885 561.876 12.7923 561.162 13.5978C560.523 14.3187 560.044 15.1836 559.661 16.1979C559.321 16.2022 558.984 16.2449 558.659 16.2988C558.45 16.3335 558.238 16.3741 558.032 16.4138L557.986 16.4226C557.763 16.4655 557.544 16.5071 557.323 16.5423C556.445 16.6824 555.6 16.7103 554.721 16.2937C553.529 15.7286 552.226 15.344 551.232 15.1013C550.732 14.9794 550.306 14.8922 550.003 14.8353C549.852 14.8069 549.732 14.786 549.649 14.7721C549.607 14.7652 549.575 14.76 549.552 14.7565L549.526 14.7525L549.519 14.7514L549.517 14.751M549.443 15.2456C549.516 14.751 549.517 14.751 549.517 14.751M549.443 15.2456L549.517 14.751M545.215 31.4997C545.217 31.5069 545.223 31.5328 545.216 31.5743L544.229 31.4168C544.178 31.7324 544.332 32.0045 544.47 32.1853C544.621 32.3816 544.833 32.575 545.08 32.7621C545.577 33.1389 546.291 33.5491 547.16 33.9579C548.903 34.778 551.336 35.6245 554.064 36.1988C559.489 37.3411 566.242 37.4385 571.02 33.8973L570.425 33.0939C566 36.373 559.614 36.3454 554.27 35.2202C551.613 34.6607 549.254 33.8377 547.586 33.053C546.749 32.6595 546.104 32.2835 545.684 31.9653C545.473 31.8049 545.338 31.6736 545.264 31.5774C545.229 31.5317 545.217 31.5067 545.215 31.4997ZM545.215 31.4997L545.214 31.4976M563.907 16.7225C562.725 16.5291 561.7 16.3769 560.706 16.2728C561.035 15.4679 561.426 14.8068 561.91 14.2612C562.506 13.5892 563.262 13.0706 564.266 12.6813C566.301 11.8924 569.321 11.6451 573.993 11.7454C575.461 11.8017 576.559 11.6608 577.378 11.1017C577.983 10.6886 578.38 10.0856 578.683 9.31331L579.908 10.9455L581.508 9.74556V12.0546L582.789 11.414C582.6 11.8578 582.469 12.3098 582.414 12.8005C582.299 13.8135 582.507 14.9298 583.037 16.4138L583.052 16.454L583.072 16.4911C586.091 21.8464 587.364 25.2886 587.286 27.8065C587.215 30.1117 586.003 31.728 583.633 33.4175C583.405 33.0981 583.162 32.772 582.902 32.4382L582.878 32.4074L582.849 32.3807C578.51 28.3151 576.097 26.2425 571.983 22.9844C571.701 20.2803 571.432 18.6346 569.959 15.5311L569.821 15.2401L569.499 15.2456C568.455 15.2635 567.59 15.2992 566.697 15.5144C565.839 15.7209 564.98 16.0862 563.907 16.7225Z" stroke="#381616"/>
<path d="M631.224 82.2455C631.224 84.8815 633.361 87.0183 635.997 87.0183C638.632 87.0183 640.769 84.8815 640.769 82.2455C640.769 81.1559 640.448 79.9499 639.716 79.0383C639.012 78.1624 637.864 77.4728 635.997 77.4728C633.361 77.4728 631.224 79.6096 631.224 82.2455ZM635.997 59C624.686 59 615.26 67.0795 613.179 77.7819H625.514C627.25 73.7105 631.288 70.8546 635.997 70.8546C640.705 70.8546 644.744 73.7105 646.479 77.7819H658.814C656.733 67.0795 647.308 59 635.997 59ZM635.997 105.491C647.308 105.491 656.733 97.4115 658.814 86.7092H646.479C644.744 90.7805 640.705 93.6365 635.997 93.6365C631.288 93.6365 627.25 90.7805 625.514 86.7092H613.179C615.26 97.4115 624.686 105.491 635.997 105.491Z" stroke="#565656" stroke-width="2"/>
<path d="M508.997 58.8733C507.796 55.5974 513.902 65.8993 513.583 72.2878M513.583 72.2878C512.049 70.5988 509.583 69.9994 509.583 69.9994C509.583 69.9994 505.001 69.1772 501.583 70.5826C496.205 65.8683 485.083 63.5838 486.083 65.3335C487.083 67.0832 493.564 73.0637 499.083 73.4988C497.182 78.5374 495.613 82.5349 494.343 85.7468C492.336 88.0169 491.196 90.3826 490.583 92.5759M513.583 72.2878C518.132 78.3846 516.854 81.5631 512.083 84.5804L517.583 86.9133C519.672 88.938 519.252 89.3987 517.583 89.8295L510.583 90.996C510.583 90.996 509.583 101.494 506.083 102.661C505.871 102.731 505.672 102.783 505.482 102.82M490.583 101.494C490.525 101.293 490.47 101.181 490.425 101.137M490.583 101.494C490.583 101.494 490.574 101.52 490.557 101.567M490.583 101.494C490.661 101.767 490.633 101.776 490.557 101.567M490.425 101.137C490.31 101.022 490.271 101.368 490.48 101.799M490.425 101.137C490.212 100.347 489.914 98.7979 489.957 96.8283M490.425 101.137C490.476 101.325 490.522 101.469 490.557 101.567M490.48 101.799C490.898 102.664 492.309 103.874 496.083 102.416C500.009 100.9 501.564 101.783 502.995 102.416M490.48 101.799C490.178 102.741 489.387 105.573 490.583 106.16C491.999 106.856 493.497 103.075 493.497 103.075M490.48 101.799C490.512 101.698 490.539 101.619 490.557 101.567M505.482 102.82C505.482 102.82 504.878 106.572 503.583 106.16C502.354 105.769 502.995 102.416 502.995 102.416M505.482 102.82C504.469 103.013 503.749 102.75 502.995 102.416M489.957 96.8283L488.083 96.2451L489.083 93.9122L486.083 92.1624L488.083 88.663L485.083 85.7468L486.083 82.8306L475.083 74.6653L477.583 63.5838L490.583 77.5815L488.083 83.4139L491.083 87.4965L489.083 90.996L490.583 92.5759M489.957 96.8283C489.984 95.5559 490.155 94.1079 490.583 92.5759M508.295 70.2455C507.576 65.304 508.295 57.6524 508.997 58.2821" stroke="#565656" stroke-width="2"/>
<path d="M372.083 76.1401C375.112 77.2844 376.832 77.7976 379.583 80.6002H381.583L381.083 82.8302L382.083 84.5027C378.956 85.5771 377.31 85.6761 374.583 85.0603C374.779 88.2892 374.532 89.141 374.082 90.6353C376.259 93.4168 376.911 95.512 376.583 100.113L378.083 101.228L377.083 101.785L377.583 102.9L375.583 102.343C375.388 102.778 375.082 103.458 375.082 103.458C373.318 102.651 372.203 102.25 369.583 101.785C369.883 100.067 369.639 99.4469 369.083 98.4404C366.766 99.7611 365.373 100.028 362.583 98.9979C361.486 101.197 361.077 102.704 360.583 105.688C358.121 104.723 357.57 105.273 356.583 106.246C355.526 105.111 354.861 104.974 353.583 105.688C354.295 103.574 354.115 100.853 354.083 96.7679C352.25 93.8459 351.19 91.9832 349.583 90.6353C347.458 89.1679 346.156 88.7898 343.583 88.9628C339.261 90.4673 338.684 94.5653 340.583 98.4404C341.567 100.448 344.896 101.785 344.896 101.785C346.847 102.208 347.962 102.317 350.083 101.785C350.083 101.785 351.894 101.374 353.583 100.67M373.082 63.3175C373.082 63.3175 373.582 62.76 373.082 62.2024C372.582 61.6449 368.583 57.7424 364.082 58.2999C359.582 58.8574 356.449 62.818 356.083 68.8925C357.486 75.9176 359.341 77.7959 366.082 77.8127C369.808 76.7043 372.05 77.3303 375.082 70.5651C375.094 69.2976 374.944 68.6554 374.082 67.7775C374.385 65.8424 374 64.9125 373.082 63.3175ZM356.583 73.9101C356.583 73.3526 352.542 80.1982 352.083 84.5027C351.524 89.3894 353.583 95.6529 354.083 96.2104C354.583 96.7679 355.084 92.3079 356.083 90.6353C357.082 88.9628 355.571 85.4648 355.448 85.0603C355.326 84.6557 356.448 83.3334 357.948 80.5458C359.449 77.7583 356.583 74.4676 356.583 73.9101Z" stroke="#565656" stroke-width="2"/>
<path d="M221.266 94.6599C222.404 90.8573 224.464 87.2684 228.053 85.2812C224.579 86.5808 221.072 86.0604 219.053 84.1778C217.035 82.2952 220.053 82.5227 220.053 82.5227H219.053L220.053 81.4193V80.3159C220.438 80.5285 220.975 80.8242 222.053 81.4193C224.787 79.9112 225.053 78.6609 229.053 77.5575C233.053 76.4541 226.053 71.4888 228.053 67.0753C230.276 59.0946 232.263 58.3472 236.053 58.2482C239.844 58.1492 241.154 60.8406 243.053 64.3168C243.086 68.7202 243.279 70.8188 244.053 73.6956C244.827 76.5724 237.553 78.6609 237.553 78.6609L244.053 81.4193L246.553 83.6235L244.553 84.7268L245.053 86.3846C244.153 85.8362 242.146 85.6362 238.553 85.2812L239.053 91.3498C239.053 91.3498 238.053 90.7982 241.053 93.5566C244.053 96.315 242.053 100.729 242.053 100.729L246.053 102.384L242.053 101.832L245.053 103.608L242.053 102.384L244.053 104.039C241.135 102.961 238.726 102.62 236.553 102.384C236.553 102.384 234.553 101.28 236.053 100.177C237.553 99.0735 231.553 99.0735 231.553 99.0735C231.553 99.0735 228.885 100.195 227.053 100.177C225.97 101.282 224.011 102.119 223.553 104.039L221.053 106.246L221.266 104.039L219.053 105.142L220.553 103.487L218.053 104.039L220.053 101.832C220.086 101.294 220.131 100.741 220.19 100.177M221.266 94.6599C215.028 94.459 213.753 92.3087 212.553 87.4879L214.553 85.2812L216.053 83.0744L214.553 80.3159V77.5575M221.266 94.6599C220.714 96.5014 220.379 98.3929 220.19 100.177M214.553 76.454V77.5575M214.553 77.5575L213.553 75.3506L212.553 76.454L211.553 72.0405L210.553 73.6956L210.053 77.5574L208.553 79.7642L210.053 83.0744H208.553L210.053 86.3846L211.553 88.0396C212.309 94.8524 213.709 97.9006 220.19 100.177" stroke="#565656" stroke-width="2"/>
<path fill-rule="evenodd" clip-rule="evenodd" d="M81.6997 57.1323L79.8887 59.5457L77.4886 57.7456V60.4365L74.564 58.9743L75.5696 60.5184C76.1662 61.4346 76.5001 62.128 76.5893 62.9134C76.6783 63.6971 76.5301 64.6337 76.0319 66.0375C73.0321 71.3652 71.624 75.0179 71.7107 77.8372C71.7957 80.6012 73.3053 82.4687 75.802 84.245C74.4305 86.375 73.8255 88.2547 74.0178 90.2414C74.22 92.3295 75.297 94.4517 77.0781 97.0298L77.1624 97.1519L77.2997 97.2082C78.3208 97.6269 79.1838 97.8655 80.111 97.8713C81.0345 97.877 81.9783 97.6515 83.1625 97.2147L83.3693 97.1384L83.4525 96.9343C84.1227 95.2903 84.6774 93.8657 84.7607 92.3763C84.8164 92.5031 84.8746 92.6291 84.9353 92.7545C85.9123 94.7727 87.5256 96.5706 90.1822 98.64L90.3588 98.7775L96.5557 97.6506L96.4829 97.1706C96.3099 96.0297 96.1271 95.1322 95.6328 93.2307C95.9331 93.2035 96.2544 93.1533 96.5741 93.0927C97.1663 92.9804 97.7966 92.8233 98.3566 92.6732C98.7191 92.576 99.0633 92.4785 99.3462 92.3985C99.4259 92.3759 99.5007 92.3548 99.5697 92.3353C99.6482 92.5329 99.765 92.7619 99.9076 93.0048C100.246 93.5819 100.771 94.3044 101.42 94.9903C102.068 95.6748 102.857 96.3421 103.728 96.7867C104.602 97.2321 105.589 97.4686 106.602 97.2325L106.741 97.2001L106.842 97.0989C107.373 96.5675 107.853 96.0639 108.283 95.5762C109.488 94.2096 110.295 92.9022 110.733 91.4614C111.168 90.0284 111.225 88.5015 110.988 86.7088L110.981 86.2509L111.053 84.2637L110.054 84.2275L109.981 86.2402L109.989 86.7825L109.993 86.8118C110.222 88.5225 110.16 89.9061 109.776 91.1709C109.392 92.4357 108.674 93.6202 107.533 94.915C107.149 95.3506 106.719 95.804 106.24 96.2862C105.567 96.405 104.872 96.2475 104.183 95.8958C103.445 95.5197 102.745 94.9362 102.147 94.3031C101.549 93.6715 101.07 93.0095 100.77 92.4984C100.622 92.2474 100.527 92.0482 100.48 91.9163C100.487 91.9011 100.493 91.8848 100.498 91.8676C100.52 91.7986 100.534 91.6984 100.503 91.585C100.472 91.4685 100.404 91.383 100.336 91.3275C100.223 91.2351 100.104 91.2199 100.077 91.2163C100.032 91.2106 99.9945 91.2116 99.9747 91.2126C99.9334 91.2147 99.8956 91.2208 99.8713 91.2252C99.7757 91.2423 99.6294 91.281 99.4711 91.3247C99.3497 91.3581 99.2114 91.3973 99.0584 91.4406C98.7812 91.5191 98.456 91.6112 98.0976 91.7073C97.5472 91.8548 96.9443 92.0046 96.3877 92.1102C95.8202 92.2178 95.3427 92.2709 95.0263 92.247L94.3253 92.1939L94.5052 92.8735C95.0353 94.8762 95.2512 95.8374 95.4182 96.8411L90.6211 97.7134C88.1355 95.7536 86.6992 94.1033 85.8354 92.3188C84.9494 90.4888 84.6406 88.468 84.4878 85.7178L83.4893 85.7733C83.536 86.6132 83.5974 87.3987 83.6872 88.1413C83.2426 87.3146 82.6492 86.425 81.8845 85.4391L81.0944 86.052C82.9717 88.4725 83.6735 90.155 83.7618 91.6599C83.8479 93.1269 83.3604 94.5001 82.61 96.3512C81.5824 96.7164 80.822 96.8757 80.1172 96.8713C79.4058 96.8669 78.7117 96.6954 77.8162 96.3384C76.1095 93.8497 75.1867 91.9376 75.0132 90.145C74.8393 88.3488 75.4117 86.5889 76.9022 84.3944C77.1879 83.9737 77.5068 83.5379 77.86 83.0836C82.2186 79.0001 84.6157 76.9468 88.7996 73.6377L88.9653 73.5067L88.9869 73.2965C89.2608 70.6225 89.4806 69.1056 90.8041 66.252C91.6853 66.2727 92.3717 66.3195 93.0656 66.4866C93.8358 66.6721 94.6413 67.0129 95.7303 67.6731L95.8883 67.769L96.0708 67.7389C97.589 67.4888 98.8169 67.3089 100.03 67.2075C100.379 67.1783 100.754 67.2156 101.174 67.2853C101.37 67.3178 101.57 67.3561 101.779 67.3964L101.822 67.4046C102.045 67.4474 102.278 67.4918 102.516 67.5298C103.472 67.6823 104.556 67.7412 105.704 67.1974C106.81 66.673 108.04 66.3076 109.002 66.0727C109.481 65.9558 109.89 65.8723 110.178 65.8181C110.198 65.8144 110.217 65.8108 110.236 65.8073C110.28 65.9211 110.332 66.057 110.389 66.2101C110.566 66.6829 110.796 67.3164 111.008 67.9635C111.221 68.6143 111.41 69.2639 111.513 69.7736C111.564 70.031 111.589 70.2306 111.59 70.3676C111.59 70.4021 111.588 70.4277 111.587 70.4457C111.445 70.6203 111.439 70.8263 111.449 70.9426C111.462 71.084 111.508 71.2252 111.556 71.3463C111.654 71.594 111.819 71.9021 112.009 72.2377C112.109 72.4151 112.219 72.6049 112.335 72.8064C112.672 73.3906 113.066 74.0729 113.451 74.8359C114.494 76.903 115.371 79.3797 114.777 81.6171L115.743 81.874C116.44 79.2518 115.4 76.4784 114.344 74.3854C113.945 73.5946 113.529 72.8751 113.19 72.287C113.077 72.0914 112.972 71.9104 112.88 71.746C112.688 71.4066 112.555 71.154 112.486 70.9786C112.479 70.9618 112.474 70.947 112.469 70.9339C112.51 70.8601 112.535 70.7867 112.551 70.7249C112.581 70.605 112.59 70.4797 112.59 70.3637C112.589 70.1316 112.55 69.8586 112.493 69.5769C112.379 69.0084 112.175 68.3143 111.958 67.6526C111.74 66.9873 111.506 66.3395 111.325 65.8591C111.235 65.6186 111.159 65.4194 111.104 65.2801C111.077 65.2104 111.056 65.1557 111.041 65.1182L111.024 65.0752L111.018 65.06C111.018 65.06 111.018 65.0599 110.554 65.2456C110.48 64.751 110.48 64.751 110.48 64.751L110.477 64.7514L110.47 64.7525L110.444 64.7565C110.422 64.76 110.39 64.7652 110.348 64.7721C110.265 64.786 110.144 64.8069 109.993 64.8353C109.691 64.8922 109.265 64.9794 108.765 65.1013C107.77 65.344 106.468 65.7286 105.275 66.2937C104.396 66.7103 103.551 66.6824 102.673 66.5423C102.453 66.5071 102.234 66.4655 102.01 66.4226L101.965 66.4138C101.758 66.3741 101.547 66.3335 101.337 66.2988C101.012 66.2449 100.676 66.2022 100.336 66.1979C99.953 65.1836 99.4738 64.3187 98.8345 63.5978C98.1203 62.7923 97.2256 62.1885 96.0919 61.749C93.8523 60.8807 90.6496 60.6453 85.9778 60.7457L85.9693 60.7459C84.5382 60.8011 83.721 60.6435 83.1828 60.2759C82.6557 59.9159 82.2965 59.2853 81.9713 58.112L81.6997 57.1323ZM99.2907 66.2728C98.2969 66.3769 97.2719 66.5291 96.0894 66.7225C95.017 66.0862 94.1571 65.7209 93.2997 65.5144C92.4063 65.2992 91.5416 65.2635 90.498 65.2456L90.176 65.2401L90.0378 65.5311C88.5642 68.6346 88.2951 70.2803 88.0138 72.9844C83.8997 76.2425 81.4863 78.3151 77.1476 82.3807L77.1191 82.4074L77.0951 82.4382C76.835 82.772 76.5912 83.0981 76.3638 83.4175C73.9938 81.728 72.7811 80.1117 72.7102 77.8065C72.6328 75.2886 73.9058 71.8464 76.9241 66.4911L76.945 66.454L76.9594 66.4138C77.4897 64.9298 77.698 63.8135 77.5829 62.8005C77.5271 62.3098 77.397 61.8578 77.2074 61.414L78.4886 62.0546V59.7456L80.0884 60.9455L81.3133 59.3133C81.6164 60.0856 82.014 60.6886 82.6188 61.1017C83.4375 61.6608 84.5355 61.8017 86.0035 61.7454C90.6756 61.6451 93.6954 61.8924 95.7305 62.6813C96.7345 63.0706 97.4903 63.5892 98.0863 64.2612C98.5701 64.8068 98.9612 65.4679 99.2907 66.2728ZM110.554 65.2456L110.48 64.751L110.871 64.693L111.018 65.06L110.554 65.2456ZM115.526 82.1853C115.665 82.0045 115.818 81.7324 115.768 81.4168L114.78 81.5743C114.774 81.5328 114.78 81.5069 114.782 81.4997C114.779 81.5067 114.767 81.5317 114.732 81.5774C114.659 81.6736 114.524 81.8049 114.312 81.9653C113.893 82.2835 113.247 82.6595 112.411 83.053C110.743 83.8377 108.384 84.6607 105.727 85.2202C100.383 86.3454 93.9963 86.373 89.572 83.0939L88.9765 83.8973C93.7545 87.4385 100.507 87.3411 105.933 86.1988C108.66 85.6245 111.093 84.778 112.836 83.9579C113.705 83.5491 114.42 83.1389 114.917 82.7621C115.163 82.575 115.376 82.3816 115.526 82.1853ZM114.783 81.4976L114.782 81.4997Z" fill="#565656"/>
<path d="M111.018 65.06C111.018 65.06 111.018 65.0599 110.554 65.2456M111.018 65.06L110.871 64.693L110.48 64.751M111.018 65.06L110.554 65.2456M111.018 65.06L111.024 65.0752L111.041 65.1182C111.056 65.1557 111.077 65.2104 111.104 65.2801C111.159 65.4194 111.235 65.6186 111.325 65.8591C111.506 66.3395 111.74 66.9873 111.958 67.6526C112.175 68.3143 112.379 69.0084 112.493 69.5769C112.55 69.8586 112.589 70.1316 112.59 70.3637C112.59 70.4797 112.581 70.605 112.551 70.7249C112.535 70.7867 112.51 70.8601 112.469 70.9339C112.474 70.947 112.479 70.9618 112.486 70.9786C112.555 71.154 112.688 71.4066 112.88 71.746C112.972 71.9104 113.077 72.0914 113.19 72.287C113.529 72.8751 113.945 73.5946 114.344 74.3854C115.4 76.4784 116.44 79.2518 115.743 81.874L114.777 81.6171C115.371 79.3797 114.494 76.903 113.451 74.8359C113.066 74.0729 112.672 73.3906 112.335 72.8064C112.219 72.6049 112.109 72.4151 112.009 72.2377C111.819 71.9021 111.654 71.594 111.556 71.3463C111.508 71.2252 111.462 71.084 111.449 70.9426C111.439 70.8263 111.445 70.6203 111.587 70.4457C111.588 70.4277 111.59 70.4021 111.59 70.3676C111.589 70.2306 111.564 70.031 111.513 69.7736C111.41 69.2639 111.221 68.6143 111.008 67.9635C110.796 67.3164 110.566 66.6829 110.389 66.2101C110.332 66.057 110.28 65.9211 110.236 65.8073C110.217 65.8108 110.198 65.8144 110.178 65.8181C109.89 65.8723 109.481 65.9558 109.002 66.0727C108.04 66.3076 106.81 66.673 105.704 67.1974C104.556 67.7412 103.472 67.6823 102.516 67.5298C102.278 67.4918 102.045 67.4474 101.822 67.4046L101.779 67.3964C101.57 67.3561 101.37 67.3178 101.174 67.2853C100.754 67.2156 100.379 67.1783 100.03 67.2075C98.8169 67.3089 97.589 67.4888 96.0708 67.7389L95.8883 67.769L95.7303 67.6731C94.6413 67.0129 93.8358 66.6721 93.0656 66.4866C92.3717 66.3195 91.6853 66.2727 90.8041 66.252C89.4806 69.1056 89.2608 70.6225 88.9869 73.2965L88.9653 73.5067L88.7996 73.6377C84.6157 76.9468 82.2186 79.0001 77.86 83.0836C77.5068 83.5379 77.1879 83.9737 76.9022 84.3944C75.4117 86.5889 74.8393 88.3488 75.0132 90.145C75.1867 91.9376 76.1095 93.8497 77.8162 96.3384C78.7117 96.6954 79.4058 96.8669 80.1172 96.8713C80.822 96.8757 81.5824 96.7164 82.61 96.3512C83.3604 94.5001 83.8479 93.1269 83.7618 91.6599C83.6735 90.155 82.9717 88.4725 81.0944 86.052L81.8845 85.4391C82.6492 86.425 83.2426 87.3146 83.6872 88.1413C83.5974 87.3987 83.536 86.6132 83.4893 85.7733L84.4878 85.7178C84.6406 88.468 84.9494 90.4888 85.8354 92.3188C86.6992 94.1033 88.1355 95.7536 90.6211 97.7134L95.4182 96.8411C95.2512 95.8374 95.0353 94.8762 94.5052 92.8735L94.3253 92.1939L95.0263 92.247C95.3427 92.2709 95.8202 92.2178 96.3877 92.1102C96.9443 92.0046 97.5472 91.8548 98.0976 91.7073C98.456 91.6112 98.7812 91.5191 99.0584 91.4406C99.2114 91.3973 99.3497 91.3581 99.4711 91.3247C99.6294 91.281 99.7757 91.2423 99.8713 91.2252C99.8956 91.2208 99.9334 91.2147 99.9747 91.2126C99.9945 91.2116 100.032 91.2106 100.077 91.2163C100.104 91.2199 100.223 91.2351 100.336 91.3275C100.404 91.383 100.472 91.4685 100.503 91.585C100.534 91.6984 100.52 91.7986 100.498 91.8676C100.493 91.8848 100.487 91.9011 100.48 91.9163C100.527 92.0482 100.622 92.2474 100.77 92.4984C101.07 93.0095 101.549 93.6715 102.147 94.3031C102.745 94.9362 103.445 95.5197 104.183 95.8958C104.872 96.2475 105.567 96.405 106.24 96.2862C106.719 95.804 107.149 95.3506 107.533 94.915C108.674 93.6202 109.392 92.4357 109.776 91.1709C110.16 89.9061 110.222 88.5225 109.993 86.8118L109.989 86.7825L109.981 86.2402L110.054 84.2275L111.053 84.2637L110.981 86.2509L110.988 86.7088C111.225 88.5015 111.168 90.0284 110.733 91.4614C110.295 92.9022 109.488 94.2096 108.283 95.5762C107.853 96.0639 107.373 96.5675 106.842 97.0989L106.741 97.2001L106.602 97.2325C105.589 97.4686 104.602 97.2321 103.728 96.7867C102.857 96.3421 102.068 95.6748 101.42 94.9903C100.771 94.3044 100.246 93.5819 99.9076 93.0048C99.765 92.7619 99.6482 92.5329 99.5697 92.3353C99.5007 92.3548 99.4259 92.3759 99.3462 92.3985C99.0633 92.4785 98.7191 92.576 98.3566 92.6732C97.7966 92.8233 97.1663 92.9804 96.5741 93.0927C96.2544 93.1533 95.9331 93.2035 95.6328 93.2307C96.1271 95.1322 96.3099 96.0297 96.4829 97.1706L96.5557 97.6506L90.3588 98.7775L90.1822 98.64C87.5256 96.5706 85.9123 94.7727 84.9353 92.7545C84.8746 92.6291 84.8164 92.5031 84.7607 92.3763C84.6774 93.8657 84.1227 95.2903 83.4525 96.9343L83.3693 97.1384L83.1625 97.2147C81.9783 97.6515 81.0345 97.877 80.111 97.8713C79.1838 97.8655 78.3208 97.6269 77.2997 97.2082L77.1624 97.1519L77.0781 97.0298C75.297 94.4517 74.22 92.3295 74.0178 90.2414C73.8255 88.2547 74.4305 86.375 75.802 84.245C73.3053 82.4687 71.7957 80.6012 71.7107 77.8372C71.624 75.0179 73.0321 71.3652 76.0319 66.0375C76.5301 64.6337 76.6783 63.6971 76.5893 62.9134C76.5001 62.128 76.1662 61.4346 75.5696 60.5184L74.564 58.9743L77.4886 60.4365V57.7456L79.8887 59.5457L81.6997 57.1323L81.9713 58.112C82.2965 59.2853 82.6557 59.9159 83.1828 60.2759C83.721 60.6435 84.5382 60.8011 85.9693 60.7459L85.9778 60.7457C90.6496 60.6453 93.8523 60.8807 96.0919 61.749C97.2256 62.1885 98.1203 62.7923 98.8345 63.5978C99.4738 64.3187 99.953 65.1836 100.336 66.1979C100.676 66.2022 101.012 66.2449 101.337 66.2988C101.547 66.3335 101.758 66.3741 101.965 66.4138L102.01 66.4226C102.234 66.4655 102.453 66.5071 102.673 66.5423C103.551 66.6824 104.396 66.7103 105.275 66.2937C106.468 65.7286 107.77 65.344 108.765 65.1013C109.265 64.9794 109.691 64.8922 109.993 64.8353C110.144 64.8069 110.265 64.786 110.348 64.7721C110.39 64.7652 110.422 64.76 110.444 64.7565L110.47 64.7525L110.477 64.7514L110.48 64.751M110.554 65.2456C110.48 64.751 110.48 64.751 110.48 64.751M110.554 65.2456L110.48 64.751M114.782 81.4997C114.78 81.5069 114.774 81.5328 114.78 81.5743L115.768 81.4168C115.818 81.7324 115.665 82.0045 115.526 82.1853C115.376 82.3816 115.163 82.575 114.917 82.7621C114.42 83.1389 113.705 83.5491 112.836 83.9579C111.093 84.778 108.66 85.6245 105.933 86.1988C100.507 87.3411 93.7545 87.4385 88.9765 83.8973L89.572 83.0939C93.9963 86.373 100.383 86.3454 105.727 85.2202C108.384 84.6607 110.743 83.8377 112.411 83.053C113.247 82.6595 113.893 82.2835 114.312 81.9653C114.524 81.8049 114.659 81.6736 114.732 81.5774C114.767 81.5317 114.779 81.5067 114.782 81.4997ZM114.782 81.4997L114.783 81.4976M96.0894 66.7225C97.2719 66.5291 98.2969 66.3769 99.2907 66.2728C98.9612 65.4679 98.5701 64.8068 98.0863 64.2612C97.4903 63.5892 96.7345 63.0706 95.7305 62.6813C93.6954 61.8924 90.6756 61.6451 86.0035 61.7454C84.5355 61.8017 83.4375 61.6608 82.6188 61.1017C82.014 60.6886 81.6164 60.0856 81.3133 59.3133L80.0884 60.9455L78.4886 59.7456V62.0546L77.2074 61.414C77.397 61.8578 77.5271 62.3098 77.5829 62.8005C77.698 63.8135 77.4897 64.9298 76.9594 66.4138L76.945 66.454L76.9241 66.4911C73.9058 71.8464 72.6328 75.2886 72.7102 77.8065C72.7811 80.1117 73.9938 81.728 76.3638 83.4175C76.5912 83.0981 76.835 82.772 77.0951 82.4382L77.1191 82.4074L77.1476 82.3807C81.4863 78.3151 83.8997 76.2425 88.0138 72.9844C88.2951 70.2803 88.5642 68.6346 90.0378 65.5311L90.176 65.2401L90.498 65.2456C91.5416 65.2635 92.4063 65.2992 93.2997 65.5144C94.1571 65.7209 95.017 66.0862 96.0894 66.7225Z" stroke="#565656"/>
</svg>
